<svg xmlns="http://www.w3.org/2000/svg" xmlns:xlink="http://www.w3.org/1999/xlink" width="648" zoomAndPan="magnify" viewBox="0 0 486 149.999998" height="200" preserveAspectRatio="xMidYMid meet" version="1.0"><defs><g/></defs><rect x="-48.6" width="583.2" fill="#ffffff" y="-15" height="179.999997" fill-opacity="1"/><rect x="-48.6" width="583.2" fill="#ffffff" y="-15" height="179.999997" fill-opacity="1"/><rect x="-48.6" width="583.2" fill="#35718a" y="-15" height="179.999997" fill-opacity="1"/><g fill="#ffffff" fill-opacity="1"><g transform="translate(9.908206, 109.124996)"><g><path d="M 2.265625 0 C 1.648438 0 1.117188 -0.222656 0.671875 -0.671875 C 0.222656 -1.117188 0 -1.648438 0 -2.265625 C 0 -2.535156 0.0351562 -2.773438 0.109375 -2.984375 L 23.03125 -68.5625 C 23.300781 -69.457031 23.8125 -70.242188 24.5625 -70.921875 C 25.320312 -71.609375 26.351562 -71.953125 27.65625 -71.953125 L 49.953125 -71.953125 C 51.253906 -71.953125 52.28125 -71.609375 53.03125 -70.921875 C 53.789062 -70.242188 54.304688 -69.457031 54.578125 -68.5625 L 77.515625 -2.984375 C 77.578125 -2.773438 77.609375 -2.535156 77.609375 -2.265625 C 77.609375 -1.648438 77.382812 -1.117188 76.9375 -0.671875 C 76.5 -0.222656 75.96875 0 75.34375 0 L 56.328125 0 C 54.273438 0 52.941406 -0.851562 52.328125 -2.5625 L 49.859375 -9.359375 L 27.75 -9.359375 L 25.28125 -2.5625 C 24.664062 -0.851562 23.332031 0 21.28125 0 Z M 33 -29.40625 L 44.609375 -29.40625 L 38.75 -48.515625 Z M 33 -29.40625 "/></g></g></g><g fill="#ffffff" fill-opacity="1"><g transform="translate(87.51987, 109.124996)"><g><path d="M 7.40625 0 C 6.644531 0 5.988281 -0.269531 5.4375 -0.8125 C 4.894531 -1.363281 4.625 -2.019531 4.625 -2.78125 L 4.625 -50.671875 C 4.625 -51.429688 4.894531 -52.082031 5.4375 -52.625 C 5.988281 -53.175781 6.644531 -53.453125 7.40625 -53.453125 L 25.390625 -53.453125 C 26.140625 -53.453125 26.789062 -53.175781 27.34375 -52.625 C 27.894531 -52.082031 28.171875 -51.429688 28.171875 -50.671875 L 28.171875 -47.28125 C 29.953125 -49.40625 32.363281 -51.132812 35.40625 -52.46875 C 38.457031 -53.8125 41.734375 -54.484375 45.234375 -54.484375 C 48.859375 -54.484375 52.175781 -53.640625 55.1875 -51.953125 C 58.207031 -50.273438 60.625 -47.6875 62.4375 -44.1875 C 64.257812 -40.695312 65.171875 -36.347656 65.171875 -31.140625 L 65.171875 -2.78125 C 65.171875 -2.019531 64.894531 -1.363281 64.34375 -0.8125 C 63.800781 -0.269531 63.148438 0 62.390625 0 L 42.765625 0 C 42.003906 0 41.347656 -0.269531 40.796875 -0.8125 C 40.253906 -1.363281 39.984375 -2.019531 39.984375 -2.78125 L 39.984375 -30.421875 C 39.984375 -32.273438 39.535156 -33.679688 38.640625 -34.640625 C 37.753906 -35.597656 36.488281 -36.078125 34.84375 -36.078125 C 33.195312 -36.078125 31.925781 -35.597656 31.03125 -34.640625 C 30.144531 -33.679688 29.703125 -32.273438 29.703125 -30.421875 L 29.703125 -2.78125 C 29.703125 -2.019531 29.425781 -1.363281 28.875 -0.8125 C 28.332031 -0.269531 27.6875 0 26.9375 0 Z M 7.40625 0 "/></g></g></g><g fill="#ffffff" fill-opacity="1"><g transform="translate(156.804984, 109.124996)"><g><path d="M 37.71875 0 C 29.632812 0 23.332031 -1.691406 18.8125 -5.078125 C 14.289062 -8.472656 12.03125 -14.144531 12.03125 -22.09375 L 12.03125 -35.46875 L 3.90625 -35.46875 C 3.15625 -35.46875 2.503906 -35.738281 1.953125 -36.28125 C 1.398438 -36.832031 1.125 -37.484375 1.125 -38.234375 L 1.125 -50.671875 C 1.125 -51.429688 1.398438 -52.082031 1.953125 -52.625 C 2.503906 -53.175781 3.15625 -53.453125 3.90625 -53.453125 L 12.03125 -53.453125 L 12.03125 -70.203125 C 12.03125 -70.960938 12.300781 -71.613281 12.84375 -72.15625 C 13.394531 -72.707031 14.046875 -72.984375 14.796875 -72.984375 L 32.796875 -72.984375 C 33.546875 -72.984375 34.191406 -72.707031 34.734375 -72.15625 C 35.285156 -71.613281 35.5625 -70.960938 35.5625 -70.203125 L 35.5625 -53.453125 L 48.515625 -53.453125 C 49.273438 -53.453125 49.925781 -53.175781 50.46875 -52.625 C 51.019531 -52.082031 51.296875 -51.429688 51.296875 -50.671875 L 51.296875 -38.234375 C 51.296875 -37.484375 51.019531 -36.832031 50.46875 -36.28125 C 49.925781 -35.738281 49.273438 -35.46875 48.515625 -35.46875 L 35.5625 -35.46875 L 35.5625 -24.15625 C 35.5625 -20.726562 37.035156 -19.015625 39.984375 -19.015625 L 49.34375 -19.015625 C 50.09375 -19.015625 50.742188 -18.738281 51.296875 -18.1875 C 51.847656 -17.644531 52.125 -16.992188 52.125 -16.234375 L 52.125 -2.78125 C 52.125 -2.019531 51.847656 -1.363281 51.296875 -0.8125 C 50.742188 -0.269531 50.09375 0 49.34375 0 Z M 37.71875 0 "/></g></g></g><g fill="#ffffff" fill-opacity="1"><g transform="translate(211.492942, 109.124996)"><g><path d="M 33 1.03125 C 14.15625 1.03125 4.21875 -6.609375 3.1875 -21.890625 C 3.113281 -22.921875 3.078125 -24.535156 3.078125 -26.734375 C 3.078125 -28.921875 3.113281 -30.53125 3.1875 -31.5625 C 3.664062 -39.03125 6.507812 -44.71875 11.71875 -48.625 C 16.925781 -52.53125 24.019531 -54.484375 33 -54.484375 C 41.976562 -54.484375 49.070312 -52.53125 54.28125 -48.625 C 59.488281 -44.71875 62.332031 -39.03125 62.8125 -31.5625 C 62.945312 -29.5 63.015625 -27.890625 63.015625 -26.734375 C 63.015625 -25.566406 62.945312 -23.953125 62.8125 -21.890625 C 61.78125 -6.609375 51.84375 1.03125 33 1.03125 Z M 33 -15.421875 C 34.84375 -15.421875 36.039062 -15.914062 36.59375 -16.90625 C 37.144531 -17.90625 37.488281 -19.738281 37.625 -22.40625 C 37.6875 -23.09375 37.71875 -24.535156 37.71875 -26.734375 C 37.71875 -28.921875 37.6875 -30.359375 37.625 -31.046875 C 37.414062 -33.648438 37.035156 -35.460938 36.484375 -36.484375 C 35.941406 -37.515625 34.78125 -38.03125 33 -38.03125 C 31.21875 -38.03125 30.050781 -37.515625 29.5 -36.484375 C 28.957031 -35.460938 28.582031 -33.648438 28.375 -31.046875 L 28.265625 -26.734375 L 28.375 -22.40625 C 28.507812 -19.738281 28.847656 -17.90625 29.390625 -16.90625 C 29.941406 -15.914062 31.144531 -15.421875 33 -15.421875 Z M 33 -15.421875 "/></g></g></g><g fill="#ffffff" fill-opacity="1"><g transform="translate(277.488544, 109.124996)"><g><path d="M 7.921875 -59.109375 C 7.160156 -59.109375 6.503906 -59.378906 5.953125 -59.921875 C 5.410156 -60.472656 5.140625 -61.128906 5.140625 -61.890625 L 5.140625 -74.328125 C 5.140625 -75.078125 5.410156 -75.722656 5.953125 -76.265625 C 6.503906 -76.816406 7.160156 -77.09375 7.921875 -77.09375 L 25.28125 -77.09375 C 26.039062 -77.09375 26.691406 -76.816406 27.234375 -76.265625 C 27.785156 -75.722656 28.0625 -75.078125 28.0625 -74.328125 L 28.0625 -61.890625 C 28.0625 -61.128906 27.785156 -60.472656 27.234375 -59.921875 C 26.691406 -59.378906 26.039062 -59.109375 25.28125 -59.109375 Z M 7.40625 0 C 6.644531 0 5.988281 -0.269531 5.4375 -0.8125 C 4.894531 -1.363281 4.625 -2.019531 4.625 -2.78125 L 4.625 -50.671875 C 4.625 -51.429688 4.894531 -52.082031 5.4375 -52.625 C 5.988281 -53.175781 6.644531 -53.453125 7.40625 -53.453125 L 25.796875 -53.453125 C 26.554688 -53.453125 27.207031 -53.175781 27.75 -52.625 C 28.300781 -52.082031 28.578125 -51.429688 28.578125 -50.671875 L 28.578125 -2.78125 C 28.578125 -2.019531 28.300781 -1.363281 27.75 -0.8125 C 27.207031 -0.269531 26.554688 0 25.796875 0 Z M 7.40625 0 "/></g></g></g><g fill="#ffffff" fill-opacity="1"><g transform="translate(310.691949, 109.124996)"><g><path d="M 7.40625 0 C 6.644531 0 5.988281 -0.269531 5.4375 -0.8125 C 4.894531 -1.363281 4.625 -2.019531 4.625 -2.78125 L 4.625 -50.671875 C 4.625 -51.429688 4.894531 -52.082031 5.4375 -52.625 C 5.988281 -53.175781 6.644531 -53.453125 7.40625 -53.453125 L 25.390625 -53.453125 C 26.140625 -53.453125 26.789062 -53.175781 27.34375 -52.625 C 27.894531 -52.082031 28.171875 -51.429688 28.171875 -50.671875 L 28.171875 -47.28125 C 29.953125 -49.40625 32.363281 -51.132812 35.40625 -52.46875 C 38.457031 -53.8125 41.734375 -54.484375 45.234375 -54.484375 C 48.859375 -54.484375 52.175781 -53.640625 55.1875 -51.953125 C 58.207031 -50.273438 60.625 -47.6875 62.4375 -44.1875 C 64.257812 -40.695312 65.171875 -36.347656 65.171875 -31.140625 L 65.171875 -2.78125 C 65.171875 -2.019531 64.894531 -1.363281 64.34375 -0.8125 C 63.800781 -0.269531 63.148438 0 62.390625 0 L 42.765625 0 C 42.003906 0 41.347656 -0.269531 40.796875 -0.8125 C 40.253906 -1.363281 39.984375 -2.019531 39.984375 -2.78125 L 39.984375 -30.421875 C 39.984375 -32.273438 39.535156 -33.679688 38.640625 -34.640625 C 37.753906 -35.597656 36.488281 -36.078125 34.84375 -36.078125 C 33.195312 -36.078125 31.925781 -35.597656 31.03125 -34.640625 C 30.144531 -33.679688 29.703125 -32.273438 29.703125 -30.421875 L 29.703125 -2.78125 C 29.703125 -2.019531 29.425781 -1.363281 28.875 -0.8125 C 28.332031 -0.269531 27.6875 0 26.9375 0 Z M 7.40625 0 "/></g></g></g><g fill="#ffffff" fill-opacity="1"><g transform="translate(379.977063, 109.124996)"><g><path d="M 32.28125 1.03125 C 22.957031 1.03125 15.722656 -1.242188 10.578125 -5.796875 C 5.441406 -10.359375 2.875 -17.300781 2.875 -26.625 L 2.875 -27.34375 C 3.007812 -36.050781 5.695312 -42.75 10.9375 -47.4375 C 16.1875 -52.132812 23.265625 -54.484375 32.171875 -54.484375 C 38.617188 -54.484375 44.050781 -53.234375 48.46875 -50.734375 C 52.882812 -48.234375 56.15625 -44.875 58.28125 -40.65625 C 60.40625 -36.4375 61.46875 -31.722656 61.46875 -26.515625 L 61.46875 -23.4375 C 61.46875 -22.6875 61.191406 -22.035156 60.640625 -21.484375 C 60.097656 -20.929688 59.453125 -20.65625 58.703125 -20.65625 L 28.0625 -20.65625 L 28.0625 -20.140625 C 28.0625 -18.023438 28.367188 -16.453125 28.984375 -15.421875 C 29.597656 -14.390625 30.628906 -13.875 32.078125 -13.875 C 32.617188 -13.875 33.0625 -13.992188 33.40625 -14.234375 C 33.75 -14.472656 34.296875 -14.972656 35.046875 -15.734375 C 35.671875 -16.347656 36.1875 -16.738281 36.59375 -16.90625 C 37.007812 -17.082031 37.628906 -17.171875 38.453125 -17.171875 L 57.875 -17.171875 C 58.488281 -17.171875 59.019531 -16.976562 59.46875 -16.59375 C 59.914062 -16.21875 60.140625 -15.722656 60.140625 -15.109375 C 60.140625 -13.191406 59.078125 -10.945312 56.953125 -8.375 C 54.828125 -5.800781 51.65625 -3.585938 47.4375 -1.734375 C 43.226562 0.109375 38.175781 1.03125 32.28125 1.03125 Z M 36.28125 -33.515625 L 36.28125 -33.609375 C 36.28125 -37.929688 34.910156 -40.09375 32.171875 -40.09375 C 29.429688 -40.09375 28.0625 -37.929688 28.0625 -33.609375 L 28.0625 -33.515625 Z M 36.28125 -33.515625 "/></g></g></g><g fill="#8a424e" fill-opacity="1"><g transform="translate(444.017556, 109.124996)"><g><path d="M 7.09375 0 C 6.34375 0 5.691406 -0.269531 5.140625 -0.8125 C 4.585938 -1.363281 4.3125 -2.019531 4.3125 -2.78125 L 4.3125 -20.65625 C 4.3125 -21.414062 4.585938 -22.066406 5.140625 -22.609375 C 5.691406 -23.160156 6.34375 -23.4375 7.09375 -23.4375 L 24.984375 -23.4375 C 25.734375 -23.4375 26.378906 -23.160156 26.921875 -22.609375 C 27.472656 -22.066406 27.75 -21.414062 27.75 -20.65625 L 27.75 -2.78125 C 27.75 -2.019531 27.472656 -1.363281 26.921875 -0.8125 C 26.378906 -0.269531 25.734375 0 24.984375 0 Z M 7.09375 0 "/></g></g></g></svg>