<svg xmlns="http://www.w3.org/2000/svg" xmlns:xlink="http://www.w3.org/1999/xlink" width="96" zoomAndPan="magnify" viewBox="0 0 72 60" height="80" preserveAspectRatio="xMidYMid meet" version="1.0"><defs><clipPath id="6b82e6f6cc"><path d="M 9.003906 1.609375 L 63 1.609375 L 63 58.609375 L 9.003906 58.609375 Z M 9.003906 1.609375 " clip-rule="nonzero"/></clipPath><clipPath id="5e31293473"><path d="M 15 8 L 63.003906 8 L 63.003906 53 L 15 53 Z M 15 8 " clip-rule="nonzero"/></clipPath><clipPath id="36208c71fb"><path d="M 9.003906 1.609375 L 61 1.609375 L 61 58.609375 L 9.003906 58.609375 Z M 9.003906 1.609375 " clip-rule="nonzero"/></clipPath><clipPath id="cdf58d5004"><path d="M 10 5 L 57 5 L 57 58.609375 L 10 58.609375 Z M 10 5 " clip-rule="nonzero"/></clipPath></defs><g clip-path="url(#6b82e6f6cc)"><path fill="#ffffff" d="M 22.894531 48.617188 C 21.226562 48.3125 19.835938 48.535156 18.71875 49.007812 C 18.671875 48.984375 18.613281 48.960938 18.566406 48.949219 C 18.320312 48.867188 17.992188 48.808594 17.660156 48.808594 C 17.367188 48.808594 17.074219 48.855469 16.835938 48.984375 C 17.050781 48.464844 17.296875 47.921875 17.589844 47.355469 C 17.601562 47.402344 17.601562 47.449219 17.625 47.496094 C 17.765625 47.898438 18.214844 48.214844 18.554688 48.324219 C 18.695312 48.359375 18.835938 48.382812 18.980469 48.382812 C 19.425781 48.382812 19.882812 48.179688 20.167969 47.839844 C 20.34375 47.625 20.484375 47.296875 20.367188 46.988281 C 20.285156 46.777344 20.074219 46.621094 19.765625 46.515625 C 19.519531 46.433594 19.191406 46.375 18.859375 46.375 C 18.566406 46.375 18.273438 46.421875 18.039062 46.550781 C 18.34375 46.054688 18.683594 45.546875 19.074219 45.050781 C 19.121094 45.003906 19.109375 44.921875 19.050781 44.886719 C 19.003906 44.851562 18.921875 44.851562 18.882812 44.910156 C 18.507812 45.382812 18.179688 45.867188 17.882812 46.339844 C 17.847656 45.855469 17.589844 45.347656 17.34375 45.027344 C 17.144531 44.769531 16.933594 44.625 16.695312 44.613281 C 16.378906 44.589844 16.109375 44.839844 15.96875 45.074219 C 15.660156 45.582031 15.695312 46.28125 16.039062 46.765625 C 16.25 47.058594 16.707031 47.378906 17.121094 47.378906 C 17.179688 47.378906 17.238281 47.367188 17.296875 47.355469 C 17.050781 47.828125 16.835938 48.289062 16.660156 48.722656 C 16.613281 48.253906 16.367188 47.769531 16.121094 47.449219 C 15.921875 47.1875 15.707031 47.046875 15.472656 47.035156 C 15.144531 47.011719 14.882812 47.261719 14.742188 47.496094 C 14.730469 47.519531 14.71875 47.542969 14.707031 47.566406 C 13.730469 46.148438 12.050781 44.636719 9.167969 43.671875 C 9.121094 43.648438 9.0625 43.671875 9.027344 43.71875 C 9.003906 43.765625 9.003906 43.824219 9.039062 43.859375 C 9.0625 43.882812 11.71875 46.550781 12.074219 52.335938 L 11.4375 52.335938 C 11.378906 52.335938 11.320312 52.398438 11.320312 52.457031 L 11.320312 53.695312 C 11.320312 53.765625 11.378906 53.8125 11.4375 53.8125 L 12.109375 53.8125 L 12.96875 58.476562 C 12.980469 58.535156 13.027344 58.574219 13.085938 58.574219 L 17.53125 58.574219 C 17.589844 58.574219 17.636719 58.535156 17.648438 58.476562 L 18.507812 53.8125 L 19.167969 53.8125 C 19.238281 53.8125 19.285156 53.765625 19.285156 53.695312 L 19.285156 52.457031 C 19.285156 52.398438 19.238281 52.335938 19.167969 52.335938 L 18.613281 52.335938 C 19.472656 49.421875 22.859375 48.832031 22.894531 48.820312 C 22.957031 48.808594 22.992188 48.757812 22.992188 48.699219 C 22.992188 48.675781 22.957031 48.628906 22.894531 48.617188 Z M 15.835938 49.800781 C 15.871094 49.800781 15.90625 49.8125 15.957031 49.8125 C 16.097656 49.8125 16.226562 49.773438 16.332031 49.703125 C 16.226562 50.023438 16.132812 50.320312 16.050781 50.601562 C 16.003906 50.34375 15.933594 50.070312 15.835938 49.800781 Z M 16.25 50.753906 C 16.308594 50.519531 16.390625 50.28125 16.472656 50.011719 C 16.519531 50.117188 16.601562 50.222656 16.683594 50.320312 C 16.53125 50.460938 16.378906 50.613281 16.25 50.753906 Z M 57.96875 8.351562 C 55.179688 8.351562 52.921875 10.097656 52.921875 12.261719 C 52.921875 13.996094 54.402344 15.519531 56.542969 16.003906 L 56.027344 18.082031 C 56.015625 18.128906 56.039062 18.1875 56.074219 18.210938 C 56.097656 18.222656 56.121094 18.234375 56.132812 18.234375 C 56.15625 18.234375 56.191406 18.222656 56.203125 18.210938 L 58.777344 16.121094 C 61.226562 15.816406 62.992188 14.195312 62.992188 12.273438 C 63.003906 10.097656 60.742188 8.351562 57.96875 8.351562 Z M 60.0625 36.714844 C 60.144531 36.667969 60.226562 36.621094 60.296875 36.574219 C 60.34375 36.550781 60.355469 36.492188 60.34375 36.445312 C 59.308594 31.792969 58.039062 28.140625 56.355469 24.964844 C 56.425781 24.707031 56.378906 24.363281 56.226562 24.140625 C 56.132812 23.996094 55.992188 23.914062 55.835938 23.914062 L 52.871094 23.441406 L 52.871094 22.546875 C 53.34375 22.320312 53.730469 21.941406 53.980469 21.445312 C 54.039062 21.457031 54.097656 21.457031 54.15625 21.457031 C 54.789062 21.457031 55.308594 20.902344 55.308594 20.230469 C 55.308594 19.722656 55.015625 19.261719 54.578125 19.085938 C 54.753906 18.707031 55.167969 17.597656 54.261719 16.902344 C 54.214844 16.722656 53.980469 16.039062 53.285156 15.71875 C 52.589844 15.402344 51.660156 15.542969 50.542969 16.144531 C 48.414062 17.289062 48.226562 18.269531 48.34375 18.800781 C 47.933594 19.015625 47.578125 19.167969 47.578125 19.167969 C 47.53125 19.191406 47.507812 19.226562 47.507812 19.285156 C 47.507812 19.332031 47.542969 19.378906 47.589844 19.390625 C 47.945312 19.5 48.296875 19.570312 48.660156 19.605469 C 48.554688 19.792969 48.496094 20.019531 48.496094 20.230469 C 48.496094 20.914062 49.015625 21.457031 49.648438 21.457031 C 49.707031 21.457031 49.765625 21.445312 49.824219 21.445312 C 50.085938 21.941406 50.472656 22.320312 50.933594 22.546875 L 50.933594 23.441406 L 47.957031 23.914062 C 47.933594 23.914062 47.921875 23.925781 47.894531 23.9375 C 47.859375 23.960938 47.8125 23.984375 47.777344 24.019531 C 47.742188 24.046875 47.707031 24.070312 47.671875 24.09375 C 46.484375 23.867188 45.109375 23.773438 43.578125 23.796875 C 43.191406 23.253906 42.789062 22.710938 42.402344 22.179688 C 42.179688 21.882812 41.96875 21.578125 41.742188 21.269531 C 41.800781 21.269531 41.859375 21.222656 41.859375 21.152344 L 41.859375 8.175781 C 41.859375 8.140625 41.847656 8.105469 41.8125 8.082031 L 38.992188 5.695312 C 38.992188 5.695312 38.980469 5.695312 38.980469 5.683594 C 38.96875 5.683594 38.96875 5.671875 38.957031 5.671875 C 38.945312 5.671875 38.945312 5.671875 38.933594 5.671875 C 38.933594 5.671875 38.921875 5.671875 38.921875 5.671875 L 11.496094 5.671875 C 11.4375 5.671875 11.378906 5.730469 11.378906 5.789062 L 11.378906 41.710938 C 11.378906 41.722656 11.378906 41.722656 11.378906 41.734375 C 11.378906 41.746094 11.378906 41.746094 11.378906 41.757812 C 11.378906 41.757812 11.390625 41.769531 11.390625 41.78125 C 11.390625 41.792969 11.402344 41.792969 11.402344 41.804688 L 14.226562 44.191406 C 14.25 44.214844 14.273438 44.214844 14.296875 44.214844 L 41.730469 44.214844 C 41.742188 44.214844 41.765625 44.214844 41.777344 44.203125 C 41.777344 44.203125 41.777344 44.203125 41.789062 44.203125 C 41.800781 44.203125 41.8125 44.191406 41.8125 44.179688 C 41.8125 44.179688 41.8125 44.167969 41.824219 44.167969 C 41.824219 44.15625 41.835938 44.15625 41.835938 44.144531 C 41.835938 44.132812 41.835938 44.132812 41.835938 44.117188 C 41.835938 44.117188 41.835938 44.105469 41.835938 44.105469 L 41.835938 25.507812 C 42.003906 25.746094 42.167969 25.992188 42.332031 26.230469 C 42.355469 26.253906 42.378906 26.277344 42.414062 26.277344 C 43.214844 26.359375 44.027344 26.511719 44.824219 26.667969 C 45.589844 26.808594 46.367188 26.960938 47.144531 27.042969 C 47.085938 28.4375 47.003906 29.855469 46.921875 31.234375 C 46.835938 32.652344 46.753906 34.105469 46.683594 35.535156 C 46.683594 35.582031 46.707031 35.628906 46.753906 35.652344 C 47.050781 35.78125 47.332031 35.902344 47.625 35.996094 L 47.835938 55.902344 C 47.835938 55.949219 47.859375 55.988281 47.90625 56.011719 C 48.027344 56.070312 48.15625 56.128906 48.273438 56.164062 L 48.027344 56.953125 C 47.050781 57.332031 47.238281 58.488281 47.238281 58.5 C 47.25 58.5625 47.296875 58.597656 47.355469 58.597656 L 50.882812 58.597656 C 50.945312 58.597656 51.003906 58.546875 51.003906 58.476562 C 51.015625 57.769531 50.921875 56.859375 50.847656 56.199219 C 51.097656 56.105469 51.238281 56.011719 51.25 56.011719 C 51.285156 55.988281 51.296875 55.949219 51.308594 55.914062 L 51.636719 37.152344 L 52.472656 37.152344 L 52.800781 55.914062 C 52.800781 55.949219 52.824219 55.988281 52.859375 56.011719 C 52.871094 56.011719 53.015625 56.105469 53.261719 56.199219 C 53.179688 56.871094 53.097656 57.78125 53.109375 58.476562 C 53.109375 58.535156 53.167969 58.597656 53.226562 58.597656 L 56.753906 58.597656 C 56.8125 58.597656 56.859375 58.5625 56.871094 58.5 C 56.871094 58.488281 57.0625 57.34375 56.085938 56.953125 L 55.835938 56.164062 C 55.957031 56.117188 56.085938 56.070312 56.203125 56.011719 C 56.238281 55.988281 56.261719 55.949219 56.273438 55.902344 L 56.472656 36.242188 C 56.671875 36.171875 56.871094 36.089844 57.074219 36.007812 C 57.121094 35.984375 57.144531 35.9375 57.144531 35.890625 C 57.121094 35.558594 57.085938 35.085938 57.050781 34.625 C 57.039062 34.507812 57.039062 34.378906 57.027344 34.246094 C 57.34375 35.15625 57.648438 36.066406 57.96875 36.988281 C 57.980469 37.023438 58.015625 37.058594 58.050781 37.070312 C 58.167969 37.09375 58.285156 37.117188 58.402344 37.128906 C 58.355469 37.800781 58.460938 38.488281 58.707031 39.113281 C 58.753906 39.21875 58.882812 39.324219 59.003906 39.324219 C 59.015625 39.324219 59.027344 39.324219 59.039062 39.324219 C 59.050781 39.324219 59.050781 39.324219 59.0625 39.3125 C 59.226562 39.394531 59.414062 39.441406 59.601562 39.441406 C 59.835938 39.441406 60.0625 39.371094 60.214844 39.207031 C 60.425781 38.984375 60.777344 38.617188 60.671875 38.214844 C 60.53125 37.683594 60.332031 37.1875 60.0625 36.714844 Z M 41.96875 7.089844 L 56.96875 7.089844 C 57.027344 7.089844 57.074219 7.054688 57.085938 6.992188 C 57.097656 6.933594 57.074219 6.886719 57.027344 6.863281 L 55.121094 5.929688 C 54.882812 5.257812 54.238281 4.785156 53.519531 4.785156 C 53.449219 4.785156 53.367188 4.785156 53.296875 4.796875 C 53.085938 3.355469 51.859375 2.28125 50.390625 2.28125 C 49.226562 2.28125 48.15625 2.992188 47.695312 4.054688 C 47.425781 3.933594 47.132812 3.875 46.824219 3.875 C 45.671875 3.875 44.71875 4.796875 44.671875 5.941406 L 41.933594 6.851562 C 41.871094 6.875 41.835938 6.921875 41.847656 6.980469 C 41.859375 7.054688 41.921875 7.089844 41.96875 7.089844 Z M 9.542969 4.808594 L 19.167969 4.808594 C 19.226562 4.808594 19.273438 4.773438 19.285156 4.714844 C 19.296875 4.65625 19.273438 4.609375 19.226562 4.585938 L 17.414062 3.710938 C 17.15625 3.132812 16.589844 2.753906 15.945312 2.753906 C 15.835938 2.753906 15.730469 2.765625 15.625 2.789062 C 15.25 2.070312 14.496094 1.609375 13.683594 1.609375 C 12.507812 1.609375 11.554688 2.542969 11.507812 3.710938 L 9.496094 4.585938 C 9.449219 4.609375 9.414062 4.667969 9.425781 4.714844 C 9.4375 4.773438 9.484375 4.808594 9.542969 4.808594 Z M 9.542969 4.808594 " fill-opacity="1" fill-rule="nonzero"/></g><path fill="#35718a" d="M 20.378906 47.011719 C 20.296875 46.800781 20.085938 46.644531 19.777344 46.539062 C 19.25 46.363281 18.390625 46.292969 17.90625 46.667969 C 17.992188 46.113281 17.671875 45.441406 17.367188 45.050781 C 17.167969 44.792969 16.957031 44.652344 16.71875 44.636719 C 16.402344 44.613281 16.132812 44.863281 15.992188 45.097656 C 15.683594 45.605469 15.71875 46.304688 16.074219 46.789062 C 16.285156 47.082031 16.742188 47.402344 17.15625 47.402344 C 17.320312 47.402344 17.472656 47.355469 17.589844 47.25 C 17.589844 47.332031 17.601562 47.425781 17.636719 47.519531 C 17.777344 47.921875 18.214844 48.238281 18.566406 48.347656 C 18.707031 48.394531 18.847656 48.40625 18.992188 48.40625 C 19.4375 48.40625 19.894531 48.203125 20.179688 47.863281 C 20.367188 47.648438 20.507812 47.308594 20.378906 47.011719 Z M 17.15625 47.152344 C 16.824219 47.152344 16.4375 46.894531 16.261719 46.644531 C 15.96875 46.246094 15.945312 45.652344 16.191406 45.21875 C 16.296875 45.039062 16.472656 44.863281 16.683594 44.863281 C 16.695312 44.863281 16.695312 44.863281 16.707031 44.863281 C 16.859375 44.875 17.015625 44.980469 17.179688 45.195312 C 17.507812 45.617188 17.894531 46.480469 17.542969 46.953125 C 17.460938 47.09375 17.320312 47.152344 17.15625 47.152344 Z M 20.003906 47.707031 C 19.683594 48.097656 19.121094 48.265625 18.636719 48.121094 C 18.34375 48.027344 17.96875 47.757812 17.859375 47.4375 C 17.800781 47.285156 17.824219 47.128906 17.921875 47 C 18.109375 46.730469 18.484375 46.632812 18.859375 46.632812 C 19.167969 46.632812 19.472656 46.691406 19.695312 46.765625 C 19.945312 46.847656 20.097656 46.964844 20.15625 47.105469 C 20.25 47.308594 20.144531 47.542969 20.003906 47.707031 Z M 18.566406 48.949219 C 18.039062 48.773438 17.179688 48.699219 16.695312 49.078125 C 16.777344 48.523438 16.460938 47.851562 16.15625 47.460938 C 15.957031 47.199219 15.742188 47.058594 15.507812 47.046875 C 15.179688 47.023438 14.921875 47.273438 14.777344 47.507812 C 14.472656 48.015625 14.507812 48.710938 14.859375 49.195312 C 15.074219 49.492188 15.53125 49.8125 15.945312 49.8125 C 16.109375 49.8125 16.261719 49.761719 16.378906 49.65625 C 16.378906 49.738281 16.390625 49.835938 16.425781 49.929688 C 16.566406 50.332031 17.003906 50.648438 17.355469 50.753906 C 17.496094 50.800781 17.636719 50.8125 17.777344 50.8125 C 18.226562 50.8125 18.683594 50.613281 18.96875 50.269531 C 19.144531 50.058594 19.285156 49.726562 19.167969 49.421875 C 19.085938 49.207031 18.882812 49.054688 18.566406 48.949219 Z M 15.957031 49.574219 C 15.625 49.574219 15.238281 49.316406 15.0625 49.066406 C 14.765625 48.664062 14.742188 48.074219 14.992188 47.636719 C 15.097656 47.460938 15.273438 47.285156 15.484375 47.285156 C 15.496094 47.285156 15.496094 47.285156 15.507812 47.285156 C 15.660156 47.296875 15.824219 47.402344 15.980469 47.613281 C 16.308594 48.039062 16.695312 48.902344 16.34375 49.375 C 16.25 49.503906 16.121094 49.574219 15.957031 49.574219 Z M 18.800781 50.117188 C 18.484375 50.507812 17.921875 50.671875 17.4375 50.53125 C 17.144531 50.4375 16.765625 50.164062 16.660156 49.847656 C 16.601562 49.691406 16.625 49.539062 16.71875 49.410156 C 16.90625 49.136719 17.285156 49.042969 17.660156 49.042969 C 17.96875 49.042969 18.273438 49.101562 18.496094 49.171875 C 18.742188 49.253906 18.894531 49.375 18.957031 49.515625 C 19.039062 49.714844 18.933594 49.964844 18.800781 50.117188 Z M 18.800781 50.117188 " fill-opacity="1" fill-rule="nonzero"/><g clip-path="url(#5e31293473)"><path fill="#000000" d="M 53.238281 33.375 L 52.648438 33.375 C 52.683594 33.289062 52.695312 33.207031 52.695312 33.125 C 52.695312 33.03125 52.671875 32.949219 52.648438 32.878906 L 53.203125 32.878906 C 53.273438 32.878906 53.320312 32.832031 53.320312 32.757812 C 53.320312 32.6875 53.273438 32.640625 53.203125 32.640625 L 52.472656 32.640625 C 52.355469 32.535156 52.203125 32.476562 52.039062 32.476562 C 51.871094 32.476562 51.71875 32.535156 51.601562 32.640625 L 50.683594 32.640625 C 50.613281 32.640625 50.566406 32.6875 50.566406 32.757812 C 50.566406 32.832031 50.613281 32.878906 50.683594 32.878906 L 51.4375 32.878906 C 51.402344 32.960938 51.390625 33.042969 51.390625 33.125 C 51.390625 33.21875 51.414062 33.300781 51.4375 33.375 L 50.648438 33.375 C 50.578125 33.375 50.53125 33.421875 50.53125 33.492188 C 50.53125 33.5625 50.578125 33.609375 50.648438 33.609375 L 51.601562 33.609375 C 51.71875 33.714844 51.871094 33.773438 52.039062 33.773438 C 52.203125 33.773438 52.355469 33.714844 52.472656 33.609375 L 53.226562 33.609375 C 53.296875 33.609375 53.34375 33.5625 53.34375 33.492188 C 53.34375 33.421875 53.308594 33.375 53.238281 33.375 Z M 51.660156 33.230469 L 51.992188 33.230469 C 52.0625 33.230469 52.109375 33.183594 52.109375 33.113281 C 52.109375 33.042969 52.0625 32.996094 51.992188 32.996094 L 51.660156 32.996094 C 51.707031 32.820312 51.871094 32.699219 52.0625 32.699219 C 52.296875 32.699219 52.472656 32.890625 52.472656 33.113281 C 52.472656 33.339844 52.285156 33.527344 52.0625 33.527344 C 51.859375 33.539062 51.707031 33.410156 51.660156 33.230469 Z M 51.0625 23.667969 C 51.132812 23.667969 51.179688 23.621094 51.179688 23.550781 L 51.179688 22.472656 C 51.179688 22.402344 51.132812 22.355469 51.0625 22.355469 C 50.992188 22.355469 50.945312 22.402344 50.945312 22.472656 L 50.945312 23.550781 C 50.945312 23.621094 50.992188 23.667969 51.0625 23.667969 Z M 52.765625 23.667969 C 52.835938 23.667969 52.882812 23.621094 52.882812 23.550781 L 52.882812 22.472656 C 52.882812 22.402344 52.835938 22.355469 52.765625 22.355469 C 52.695312 22.355469 52.648438 22.402344 52.648438 22.472656 L 52.648438 23.550781 C 52.648438 23.621094 52.695312 23.667969 52.765625 23.667969 Z M 51.90625 25.675781 C 52.285156 25.675781 52.660156 25.519531 52.945312 25.261719 C 52.992188 25.214844 52.992188 25.144531 52.957031 25.097656 C 52.921875 25.046875 52.835938 25.046875 52.789062 25.085938 C 52.542969 25.308594 52.226562 25.4375 51.921875 25.4375 C 51.636719 25.4375 51.34375 25.332031 51.109375 25.144531 C 51.0625 25.109375 50.980469 25.109375 50.945312 25.167969 C 50.90625 25.214844 50.90625 25.296875 50.96875 25.332031 C 51.238281 25.542969 51.566406 25.675781 51.90625 25.675781 Z M 50.71875 32.347656 L 53.191406 32.347656 C 53.261719 32.347656 53.308594 32.300781 53.308594 32.226562 C 53.308594 32.15625 53.261719 32.109375 53.191406 32.109375 L 50.71875 32.109375 C 50.648438 32.109375 50.601562 32.15625 50.601562 32.226562 C 50.601562 32.300781 50.660156 32.347656 50.71875 32.347656 Z M 40.226562 20.113281 C 40.097656 19.960938 39.945312 19.816406 39.777344 19.722656 C 39.449219 19.535156 39.050781 19.464844 38.671875 19.523438 C 38.578125 19.488281 38.449219 19.429688 38.378906 19.367188 C 38.273438 19.273438 38.15625 19.191406 38.015625 19.167969 C 37.847656 19.144531 37.648438 19.226562 37.601562 19.417969 C 37.554688 19.617188 37.71875 19.769531 37.777344 19.839844 L 37.800781 19.863281 C 37.8125 19.875 37.824219 19.886719 37.835938 19.898438 C 37.460938 19.804688 37.074219 19.722656 36.742188 19.664062 C 36.425781 19.617188 36.296875 19.722656 36.25 19.816406 C 36.191406 19.9375 36.214844 20.089844 36.308594 20.207031 C 36.390625 20.300781 36.496094 20.347656 36.578125 20.382812 C 37.167969 20.667969 37.753906 20.953125 38.34375 21.222656 C 38.765625 21.421875 39.238281 21.507812 39.683594 21.589844 L 39.824219 21.613281 C 39.835938 21.613281 39.835938 21.613281 39.847656 21.613281 C 39.90625 21.613281 39.957031 21.578125 39.96875 21.519531 C 39.980469 21.457031 39.933594 21.386719 39.871094 21.375 L 39.730469 21.351562 C 39.273438 21.269531 38.847656 21.1875 38.449219 21 C 37.859375 20.714844 37.273438 20.433594 36.683594 20.160156 C 36.613281 20.125 36.542969 20.089844 36.496094 20.042969 C 36.460938 20.007812 36.449219 19.949219 36.460938 19.910156 C 36.484375 19.863281 36.578125 19.851562 36.71875 19.875 C 37.285156 19.972656 38.015625 20.125 38.601562 20.371094 C 38.625 20.382812 38.660156 20.382812 38.683594 20.371094 C 39.003906 20.265625 39.460938 20.125 39.90625 20.21875 C 40.25 20.289062 40.554688 20.515625 40.671875 20.796875 C 40.695312 20.855469 40.765625 20.878906 40.824219 20.855469 C 40.882812 20.832031 40.90625 20.761719 40.882812 20.703125 C 40.765625 20.46875 40.519531 20.242188 40.226562 20.113281 Z M 38.636719 20.171875 C 38.53125 20.125 38.425781 20.089844 38.308594 20.054688 C 38.191406 19.9375 38.085938 19.828125 37.96875 19.710938 L 37.945312 19.6875 C 37.882812 19.628906 37.8125 19.546875 37.824219 19.476562 C 37.835938 19.429688 37.90625 19.390625 37.980469 19.40625 C 38.0625 19.417969 38.144531 19.476562 38.226562 19.546875 C 38.332031 19.640625 38.507812 19.722656 38.613281 19.757812 C 38.636719 19.769531 38.648438 19.769531 38.671875 19.757812 C 39.003906 19.6875 39.355469 19.746094 39.648438 19.925781 C 39.683594 19.949219 39.71875 19.972656 39.753906 19.996094 C 39.34375 19.960938 38.933594 20.078125 38.636719 20.171875 Z M 60.003906 36.609375 C 59.96875 36.550781 59.894531 36.539062 59.835938 36.574219 C 59.777344 36.609375 59.765625 36.679688 59.800781 36.738281 C 60.085938 37.222656 60.308594 37.742188 60.4375 38.273438 C 60.4375 38.285156 60.4375 38.296875 60.4375 38.308594 C 60.179688 38.414062 59.894531 38.488281 59.613281 38.488281 C 59.613281 38.488281 59.601562 38.488281 59.601562 38.488281 C 59.542969 38.488281 59.484375 38.535156 59.484375 38.605469 C 59.484375 38.675781 59.53125 38.722656 59.601562 38.722656 C 59.601562 38.722656 59.613281 38.722656 59.613281 38.722656 C 59.871094 38.722656 60.144531 38.675781 60.390625 38.59375 C 60.320312 38.746094 60.179688 38.910156 60.039062 39.054688 C 59.859375 39.242188 59.519531 39.253906 59.25 39.160156 C 59.25 39.148438 59.261719 39.148438 59.261719 39.136719 C 59.296875 39.054688 59.308594 38.96875 59.308594 38.886719 C 59.320312 38.640625 59.296875 38.390625 59.238281 38.144531 C 59.226562 38.085938 59.15625 38.039062 59.097656 38.0625 C 59.039062 38.074219 58.992188 38.144531 59.015625 38.203125 C 59.074219 38.425781 59.085938 38.652344 59.074219 38.875 C 59.074219 38.933594 59.0625 38.996094 59.050781 39.042969 C 59.039062 39.078125 59.003906 39.101562 58.992188 39.101562 C 58.96875 39.101562 58.921875 39.066406 58.90625 39.042969 C 58.660156 38.414062 58.566406 37.730469 58.625 37.046875 C 58.636719 36.988281 58.589844 36.929688 58.519531 36.914062 C 58.460938 36.914062 58.402344 36.953125 58.390625 37.023438 C 58.320312 37.730469 58.425781 38.464844 58.683594 39.125 C 58.730469 39.230469 58.859375 39.335938 58.980469 39.335938 C 58.992188 39.335938 59.003906 39.335938 59.015625 39.335938 C 59.027344 39.335938 59.027344 39.335938 59.039062 39.324219 C 59.203125 39.40625 59.390625 39.453125 59.578125 39.453125 C 59.8125 39.453125 60.039062 39.382812 60.191406 39.21875 C 60.402344 38.996094 60.753906 38.628906 60.648438 38.226562 C 60.519531 37.648438 60.296875 37.105469 60.003906 36.609375 Z M 18.90625 44.933594 C 16.121094 48.476562 15.636719 52.433594 15.625 52.46875 C 15.613281 52.527344 15.660156 52.585938 15.730469 52.597656 C 15.730469 52.597656 15.742188 52.597656 15.742188 52.597656 C 15.800781 52.597656 15.847656 52.550781 15.859375 52.492188 C 15.859375 52.457031 16.34375 48.558594 19.085938 45.074219 C 19.121094 45.027344 19.121094 44.945312 19.0625 44.910156 C 19.003906 44.875 18.957031 44.886719 18.90625 44.933594 Z M 59.203125 11.527344 L 56.472656 14.257812 L 56.296875 14.078125 L 59.027344 11.339844 C 59.074219 11.292969 59.074219 11.222656 59.027344 11.175781 C 58.980469 11.125 58.90625 11.125 58.859375 11.175781 L 56.132812 13.914062 L 55.957031 13.738281 L 58.683594 10.996094 C 58.730469 10.949219 58.730469 10.878906 58.683594 10.832031 C 58.636719 10.785156 58.566406 10.785156 58.519531 10.832031 L 55.707031 13.652344 C 55.695312 13.664062 55.695312 13.675781 55.683594 13.6875 C 55.683594 13.6875 55.683594 13.699219 55.683594 13.699219 C 55.683594 13.699219 55.683594 13.710938 55.683594 13.710938 L 55.519531 14.550781 C 55.507812 14.585938 55.519531 14.632812 55.554688 14.65625 C 55.578125 14.679688 55.601562 14.691406 55.636719 14.691406 C 55.648438 14.691406 55.648438 14.691406 55.660156 14.691406 L 56.496094 14.527344 C 56.496094 14.527344 56.507812 14.527344 56.507812 14.527344 C 56.507812 14.527344 56.519531 14.527344 56.519531 14.527344 C 56.53125 14.527344 56.542969 14.515625 56.554688 14.503906 L 59.367188 11.683594 C 59.414062 11.632812 59.414062 11.5625 59.367188 11.515625 C 59.320312 11.46875 59.238281 11.480469 59.203125 11.527344 Z M 55.871094 13.996094 L 56.050781 14.171875 L 56.226562 14.351562 L 55.777344 14.433594 Z M 60.050781 9.933594 C 59.882812 9.769531 59.589844 9.769531 59.425781 9.933594 L 59.144531 10.21875 C 59.097656 10.265625 59.097656 10.335938 59.144531 10.382812 C 59.191406 10.429688 59.261719 10.429688 59.308594 10.382812 L 59.589844 10.097656 C 59.671875 10.015625 59.800781 10.015625 59.871094 10.097656 L 60.097656 10.324219 C 60.132812 10.359375 60.15625 10.417969 60.15625 10.464844 C 60.15625 10.511719 60.132812 10.570312 60.097656 10.605469 L 59.8125 10.890625 C 59.765625 10.9375 59.765625 11.007812 59.8125 11.054688 C 59.835938 11.078125 59.871094 11.089844 59.894531 11.089844 C 59.921875 11.089844 59.957031 11.078125 59.980469 11.054688 L 60.261719 10.773438 C 60.34375 10.691406 60.390625 10.582031 60.390625 10.464844 C 60.390625 10.347656 60.34375 10.242188 60.261719 10.160156 Z M 57.96875 8.351562 C 55.191406 8.351562 52.921875 10.097656 52.921875 12.261719 C 52.921875 13.996094 54.402344 15.519531 56.542969 16.003906 L 56.027344 18.082031 C 56.015625 18.128906 56.039062 18.1875 56.074219 18.210938 C 56.097656 18.222656 56.121094 18.234375 56.132812 18.234375 C 56.15625 18.234375 56.179688 18.222656 56.203125 18.210938 L 58.777344 16.121094 C 61.226562 15.816406 63.003906 14.195312 63.003906 12.273438 C 63.003906 10.097656 60.742188 8.351562 57.96875 8.351562 Z M 58.730469 15.875 C 58.707031 15.875 58.683594 15.886719 58.671875 15.898438 L 56.34375 17.785156 L 56.800781 15.933594 C 56.8125 15.898438 56.800781 15.875 56.789062 15.839844 C 56.777344 15.804688 56.742188 15.789062 56.71875 15.789062 C 54.625 15.367188 53.167969 13.902344 53.167969 12.25 C 53.167969 10.230469 55.320312 8.574219 57.980469 8.574219 C 60.636719 8.574219 62.789062 10.21875 62.789062 12.25 C 62.765625 14.066406 61.074219 15.589844 58.730469 15.875 Z M 58.730469 15.875 " fill-opacity="1" fill-rule="nonzero"/></g><path fill="#35718a" d="M 41.96875 7.089844 L 56.96875 7.089844 C 57.027344 7.089844 57.074219 7.054688 57.085938 6.992188 C 57.097656 6.933594 57.074219 6.886719 57.027344 6.863281 L 55.121094 5.929688 C 54.882812 5.257812 54.238281 4.785156 53.519531 4.785156 C 53.449219 4.785156 53.367188 4.785156 53.296875 4.796875 C 53.085938 3.355469 51.859375 2.28125 50.390625 2.28125 C 49.226562 2.28125 48.15625 2.992188 47.695312 4.054688 C 47.425781 3.933594 47.132812 3.863281 46.824219 3.863281 C 45.671875 3.863281 44.71875 4.785156 44.671875 5.929688 L 41.933594 6.839844 C 41.871094 6.863281 41.835938 6.910156 41.847656 6.96875 C 41.859375 7.027344 41.90625 7.089844 41.96875 7.089844 Z M 44.824219 6.15625 C 44.871094 6.144531 44.90625 6.097656 44.90625 6.050781 C 44.90625 4.988281 45.765625 4.125 46.824219 4.125 C 47.132812 4.125 47.425781 4.195312 47.695312 4.335938 C 47.730469 4.347656 47.753906 4.347656 47.789062 4.335938 C 47.824219 4.324219 47.847656 4.300781 47.859375 4.265625 C 48.261719 3.226562 49.273438 2.53125 50.378906 2.53125 C 51.765625 2.53125 52.921875 3.570312 53.074219 4.949219 C 53.074219 4.988281 53.097656 5.011719 53.121094 5.035156 C 53.144531 5.058594 53.179688 5.058594 53.214844 5.058594 C 53.308594 5.035156 53.414062 5.023438 53.519531 5.023438 C 54.15625 5.023438 54.730469 5.445312 54.921875 6.074219 C 54.933594 6.121094 54.980469 6.15625 55.039062 6.15625 L 56.472656 6.851562 L 42.707031 6.851562 Z M 51.039062 23.441406 L 47.96875 23.925781 C 47.945312 23.925781 47.933594 23.9375 47.90625 23.949219 C 47.871094 23.972656 47.824219 23.996094 47.789062 24.03125 C 47.753906 24.058594 47.71875 24.082031 47.683594 24.105469 C 46.496094 23.878906 45.121094 23.785156 43.589844 23.808594 C 43.203125 23.265625 42.800781 22.710938 42.414062 22.191406 C 42.015625 21.648438 41.601562 21.082031 41.203125 20.515625 C 41.167969 20.46875 41.097656 20.445312 41.050781 20.480469 C 40.367188 20.890625 39.824219 21.328125 39.472656 21.789062 C 39.4375 21.824219 39.4375 21.882812 39.472656 21.929688 C 39.980469 22.675781 40.460938 23.394531 40.921875 24.082031 C 41.378906 24.777344 41.859375 25.496094 42.367188 26.242188 C 42.390625 26.265625 42.414062 26.289062 42.449219 26.289062 C 43.238281 26.371094 44.0625 26.523438 44.847656 26.679688 C 45.613281 26.820312 46.390625 26.972656 47.167969 27.054688 C 47.109375 28.449219 47.027344 29.867188 46.945312 31.246094 C 46.859375 32.664062 46.777344 34.117188 46.707031 35.546875 C 46.707031 35.59375 46.730469 35.640625 46.777344 35.664062 C 48.050781 36.230469 49.34375 36.550781 50.589844 36.597656 C 50.625 36.597656 50.648438 36.585938 50.671875 36.5625 C 50.695312 36.539062 50.707031 36.515625 50.707031 36.480469 C 50.730469 34.316406 50.835938 32.132812 50.945312 30.03125 C 51.050781 27.917969 51.15625 25.734375 51.179688 23.574219 C 51.179688 23.539062 51.167969 23.5 51.144531 23.476562 C 51.109375 23.441406 51.074219 23.429688 51.039062 23.441406 Z M 60.355469 36.445312 C 59.320312 31.792969 58.050781 28.140625 56.367188 24.964844 C 56.4375 24.707031 56.390625 24.363281 56.238281 24.140625 C 56.144531 23.996094 56.003906 23.914062 55.847656 23.914062 L 52.789062 23.429688 C 52.753906 23.429688 52.71875 23.429688 52.695312 23.453125 C 52.671875 23.476562 52.660156 23.511719 52.660156 23.550781 C 52.90625 27.304688 53.050781 31.082031 53.179688 34.742188 L 53.238281 36.457031 C 53.238281 36.515625 53.285156 36.5625 53.332031 36.5625 C 54.425781 36.761719 55.847656 36.539062 57.0625 35.984375 C 57.109375 35.960938 57.132812 35.914062 57.132812 35.863281 C 57.109375 35.535156 57.074219 35.0625 57.039062 34.601562 C 57.027344 34.472656 57.027344 34.355469 57.015625 34.222656 C 57.332031 35.132812 57.648438 36.042969 57.957031 36.964844 C 57.96875 37 58.003906 37.035156 58.039062 37.046875 C 58.25 37.09375 58.449219 37.117188 58.636719 37.117188 C 59.167969 37.117188 59.683594 36.929688 60.296875 36.539062 C 60.34375 36.539062 60.367188 36.492188 60.355469 36.445312 Z M 36.707031 7.820312 L 24.214844 7.820312 C 24.144531 7.820312 24.097656 7.867188 24.097656 7.9375 L 24.097656 10.855469 C 24.097656 10.925781 24.144531 10.972656 24.214844 10.972656 L 36.707031 10.972656 C 36.777344 10.972656 36.824219 10.925781 36.824219 10.855469 L 36.824219 7.9375 C 36.824219 7.867188 36.765625 7.820312 36.707031 7.820312 Z M 36.589844 10.726562 L 24.332031 10.726562 L 24.332031 8.054688 L 36.589844 8.054688 Z M 30.460938 17.113281 C 28.367188 17.113281 26.648438 18.824219 26.648438 20.9375 C 26.648438 23.042969 28.355469 24.765625 30.460938 24.765625 C 32.554688 24.765625 34.273438 23.054688 34.273438 20.9375 C 34.261719 18.824219 32.554688 17.113281 30.460938 17.113281 Z M 32.285156 20.9375 C 32.285156 21.953125 31.460938 22.769531 30.460938 22.769531 C 29.449219 22.769531 28.636719 21.941406 28.636719 20.9375 C 28.636719 19.9375 29.460938 19.109375 30.460938 19.109375 C 31.472656 19.097656 32.285156 19.925781 32.285156 20.9375 Z M 21.765625 36.042969 L 15.144531 36.042969 C 14.308594 36.042969 13.625 36.726562 13.625 37.566406 L 13.625 37.90625 C 13.625 38.746094 14.308594 39.429688 15.144531 39.429688 L 21.765625 39.429688 C 22.601562 39.429688 23.285156 38.746094 23.285156 37.90625 L 23.285156 37.566406 C 23.285156 36.726562 22.601562 36.042969 21.765625 36.042969 Z M 22.894531 48.617188 C 17.402344 47.613281 15.050781 52.386719 15.027344 52.433594 C 15.015625 52.46875 15.015625 52.515625 15.039062 52.550781 C 15.0625 52.585938 15.097656 52.609375 15.132812 52.609375 L 18.449219 52.609375 C 18.507812 52.609375 18.554688 52.574219 18.566406 52.515625 C 19.34375 49.46875 22.859375 48.867188 22.894531 48.855469 C 22.957031 48.84375 22.992188 48.796875 22.992188 48.734375 C 22.992188 48.675781 22.957031 48.628906 22.894531 48.617188 Z M 22.894531 48.617188 " fill-opacity="1" fill-rule="nonzero"/><g clip-path="url(#36208c71fb)"><path fill="#d6b03c" d="M 31.378906 29.347656 L 29.554688 29.347656 C 29.484375 29.347656 29.4375 29.394531 29.4375 29.464844 L 29.4375 39.3125 C 29.4375 39.382812 29.484375 39.429688 29.554688 39.429688 L 31.378906 39.429688 C 31.449219 39.429688 31.496094 39.382812 31.496094 39.3125 L 31.496094 29.464844 C 31.496094 29.40625 31.4375 29.347656 31.378906 29.347656 Z M 31.261719 39.195312 L 29.671875 39.195312 L 29.671875 29.582031 L 31.261719 29.582031 Z M 50.789062 56.023438 C 50.753906 56 50.71875 56 50.683594 56.011719 C 50.191406 56.1875 49.414062 56.328125 48.472656 55.988281 C 48.4375 55.972656 48.414062 55.972656 48.378906 55.988281 C 48.355469 56 48.332031 56.023438 48.320312 56.058594 L 48.039062 56.941406 C 47.0625 57.320312 47.25 58.476562 47.25 58.488281 C 47.261719 58.546875 47.308594 58.585938 47.367188 58.585938 L 50.894531 58.585938 C 50.957031 58.585938 51.015625 58.535156 51.015625 58.464844 C 51.027344 57.734375 50.933594 56.765625 50.847656 56.09375 C 50.835938 56.070312 50.8125 56.035156 50.789062 56.023438 Z M 56.074219 56.953125 L 55.789062 56.070312 C 55.777344 56.035156 55.753906 56.011719 55.730469 56 C 55.707031 55.988281 55.671875 55.988281 55.636719 56 C 54.695312 56.328125 53.90625 56.199219 53.425781 56.023438 C 53.390625 56.011719 53.355469 56.011719 53.320312 56.035156 C 53.285156 56.058594 53.273438 56.082031 53.261719 56.117188 C 53.179688 56.789062 53.085938 57.757812 53.097656 58.488281 C 53.097656 58.546875 53.15625 58.609375 53.214844 58.609375 L 56.742188 58.609375 C 56.800781 58.609375 56.847656 58.574219 56.859375 58.511719 C 56.859375 58.488281 57.050781 57.332031 56.074219 56.953125 Z M 36.707031 27.789062 L 34.882812 27.789062 C 34.8125 27.789062 34.765625 27.835938 34.765625 27.90625 L 34.765625 39.324219 C 34.765625 39.394531 34.8125 39.441406 34.882812 39.441406 L 36.707031 39.441406 C 36.777344 39.441406 36.824219 39.394531 36.824219 39.324219 L 36.824219 27.90625 C 36.824219 27.835938 36.765625 27.789062 36.707031 27.789062 Z M 36.589844 39.195312 L 35.003906 39.195312 L 35.003906 28.011719 L 36.589844 28.011719 Z M 34.039062 37.871094 L 32.214844 37.871094 C 32.144531 37.871094 32.097656 37.917969 32.097656 37.992188 L 32.097656 39.3125 C 32.097656 39.382812 32.144531 39.429688 32.214844 39.429688 L 34.039062 39.429688 C 34.109375 39.429688 34.15625 39.382812 34.15625 39.3125 L 34.15625 37.992188 C 34.15625 37.929688 34.109375 37.871094 34.039062 37.871094 Z M 33.921875 39.195312 L 32.332031 39.195312 L 32.332031 38.109375 L 33.921875 38.109375 Z M 28.707031 34.28125 L 26.882812 34.28125 C 26.8125 34.28125 26.765625 34.328125 26.765625 34.402344 L 26.765625 39.3125 C 26.765625 39.382812 26.8125 39.429688 26.882812 39.429688 L 28.707031 39.429688 C 28.777344 39.429688 28.824219 39.382812 28.824219 39.3125 L 28.824219 34.402344 C 28.824219 34.34375 28.765625 34.28125 28.707031 34.28125 Z M 28.589844 39.195312 L 27.003906 39.195312 L 27.003906 34.519531 L 28.589844 34.519531 Z M 26.039062 26.546875 L 24.214844 26.546875 C 24.144531 26.546875 24.097656 26.59375 24.097656 26.667969 L 24.097656 39.3125 C 24.097656 39.382812 24.144531 39.429688 24.214844 39.429688 L 26.039062 39.429688 C 26.109375 39.429688 26.15625 39.382812 26.15625 39.3125 L 26.15625 26.667969 C 26.15625 26.59375 26.109375 26.546875 26.039062 26.546875 Z M 25.921875 39.195312 L 24.332031 39.195312 L 24.332031 26.785156 L 25.921875 26.785156 Z M 9.214844 43.683594 C 9.167969 43.671875 9.109375 43.683594 9.074219 43.730469 C 9.050781 43.777344 9.050781 43.835938 9.097656 43.871094 C 9.121094 43.894531 11.8125 46.597656 12.144531 52.480469 C 12.144531 52.539062 12.203125 52.585938 12.261719 52.585938 L 16.109375 52.585938 C 16.167969 52.585938 16.214844 52.539062 16.226562 52.480469 C 16.238281 52.421875 16.367188 50.886719 15.566406 49.019531 C 14.824219 47.320312 13.132812 45.003906 9.214844 43.683594 Z M 17.402344 10.109375 C 16.367188 10.109375 15.519531 10.960938 15.519531 12 C 15.519531 13.039062 16.367188 13.890625 17.402344 13.890625 C 18.4375 13.890625 19.285156 13.039062 19.285156 12 C 19.285156 10.960938 18.4375 10.109375 17.402344 10.109375 Z M 60.097656 11.007812 L 59.214844 10.121094 C 59.167969 10.074219 59.097656 10.074219 59.050781 10.121094 L 58.425781 10.75 C 58.402344 10.773438 58.390625 10.796875 58.390625 10.832031 C 58.390625 10.867188 58.402344 10.890625 58.425781 10.914062 L 59.308594 11.800781 C 59.332031 11.824219 59.355469 11.835938 59.390625 11.835938 C 59.425781 11.835938 59.449219 11.824219 59.472656 11.800781 L 60.097656 11.175781 C 60.144531 11.125 60.144531 11.054688 60.097656 11.007812 Z M 19.226562 4.585938 L 17.414062 3.710938 C 17.15625 3.132812 16.589844 2.753906 15.945312 2.753906 C 15.835938 2.753906 15.730469 2.765625 15.625 2.789062 C 15.25 2.070312 14.496094 1.609375 13.683594 1.609375 C 12.507812 1.609375 11.554688 2.542969 11.507812 3.710938 L 9.496094 4.585938 C 9.449219 4.609375 9.414062 4.667969 9.425781 4.714844 C 9.4375 4.773438 9.484375 4.808594 9.542969 4.808594 L 19.167969 4.808594 C 19.226562 4.808594 19.273438 4.773438 19.285156 4.714844 C 19.296875 4.667969 19.273438 4.609375 19.226562 4.585938 Z M 19.226562 4.585938 " fill-opacity="1" fill-rule="nonzero"/></g><g clip-path="url(#cdf58d5004)"><path fill="#000000" d="M 20.800781 48.820312 C 20.660156 48.878906 17.53125 50.1875 17.074219 52.359375 L 14.179688 52.359375 C 13.894531 48.027344 10.921875 44.945312 10.882812 44.921875 C 10.835938 44.875 10.765625 44.875 10.71875 44.921875 C 10.671875 44.96875 10.671875 45.039062 10.71875 45.085938 C 10.753906 45.121094 13.660156 48.121094 13.945312 52.359375 L 11.496094 52.359375 C 11.425781 52.359375 11.378906 52.410156 11.378906 52.480469 L 11.378906 53.71875 C 11.378906 53.789062 11.425781 53.835938 11.496094 53.835938 L 12.15625 53.835938 L 13.015625 58.5 C 13.027344 58.5625 13.074219 58.597656 13.132812 58.597656 L 17.53125 58.597656 C 17.589844 58.597656 17.636719 58.5625 17.648438 58.5 L 18.507812 53.835938 L 19.167969 53.835938 C 19.238281 53.835938 19.285156 53.789062 19.285156 53.71875 L 19.285156 52.480469 C 19.285156 52.410156 19.238281 52.359375 19.167969 52.359375 L 17.308594 52.359375 C 17.777344 50.34375 20.859375 49.042969 20.882812 49.03125 C 20.945312 49.007812 20.980469 48.9375 20.945312 48.878906 C 20.933594 48.820312 20.859375 48.796875 20.800781 48.820312 Z M 17.425781 58.359375 L 13.226562 58.359375 L 12.390625 53.835938 L 18.261719 53.835938 Z M 19.050781 53.601562 L 11.613281 53.601562 L 11.613281 52.597656 L 19.050781 52.597656 Z M 54.285156 20.855469 C 54.273438 20.914062 54.308594 20.988281 54.378906 21 C 54.390625 21 54.390625 21 54.402344 21 C 54.460938 21 54.507812 20.964844 54.519531 20.902344 L 54.777344 19.746094 C 54.789062 19.6875 54.753906 19.617188 54.683594 19.605469 C 54.625 19.59375 54.554688 19.628906 54.542969 19.699219 Z M 51.90625 21.09375 C 51.980469 21.09375 52.027344 21.046875 52.027344 20.976562 L 52.027344 19.949219 C 52.027344 19.875 51.980469 19.828125 51.90625 19.828125 C 51.835938 19.828125 51.789062 19.875 51.789062 19.949219 L 51.789062 20.976562 C 51.789062 21.035156 51.847656 21.09375 51.90625 21.09375 Z M 53.238281 20.953125 C 53.179688 20.914062 53.109375 20.9375 53.074219 21 C 52.695312 21.671875 51.957031 21.601562 51.921875 21.601562 C 51.847656 21.589844 51.800781 21.636719 51.789062 21.707031 C 51.777344 21.765625 51.824219 21.824219 51.894531 21.835938 C 51.90625 21.835938 51.945312 21.835938 52.003906 21.835938 C 52.261719 21.835938 52.90625 21.765625 53.273438 21.117188 C 53.308594 21.058594 53.296875 20.988281 53.238281 20.953125 Z M 50.414062 30.824219 C 50.425781 30.824219 50.4375 30.824219 50.460938 30.8125 C 50.519531 30.789062 50.554688 30.714844 50.53125 30.65625 C 50.367188 30.222656 50.214844 29.785156 50.0625 29.347656 C 49.921875 28.945312 49.777344 28.53125 49.625 28.117188 C 49.71875 28.046875 49.8125 27.976562 49.921875 27.894531 C 50.039062 27.800781 50.15625 27.707031 50.273438 27.621094 C 50.308594 27.597656 50.320312 27.5625 50.320312 27.527344 C 50.320312 27.492188 50.308594 27.457031 50.273438 27.433594 C 50.167969 27.339844 50.050781 27.257812 49.945312 27.164062 C 49.847656 27.078125 49.753906 26.996094 49.660156 26.925781 L 49.835938 24.199219 C 49.835938 24.128906 49.789062 24.082031 49.730469 24.070312 C 49.671875 24.070312 49.613281 24.117188 49.601562 24.175781 L 49.414062 26.960938 C 49.414062 26.996094 49.425781 27.03125 49.460938 27.054688 C 49.566406 27.152344 49.683594 27.234375 49.789062 27.328125 C 49.859375 27.386719 49.933594 27.445312 50.003906 27.503906 C 49.921875 27.5625 49.835938 27.621094 49.765625 27.695312 C 49.648438 27.789062 49.53125 27.882812 49.414062 27.964844 C 49.367188 28 49.355469 28.046875 49.367188 28.105469 C 49.53125 28.542969 49.683594 28.980469 49.835938 29.417969 C 49.992188 29.84375 50.144531 30.292969 50.308594 30.726562 C 50.320312 30.789062 50.355469 30.824219 50.414062 30.824219 Z M 53.367188 30.65625 C 53.34375 30.714844 53.378906 30.789062 53.4375 30.8125 C 53.449219 30.8125 53.460938 30.824219 53.484375 30.824219 C 53.53125 30.824219 53.578125 30.800781 53.589844 30.753906 C 53.753906 30.316406 53.90625 29.878906 54.0625 29.441406 C 54.214844 29.015625 54.367188 28.566406 54.53125 28.128906 C 54.554688 28.082031 54.53125 28.023438 54.484375 27.988281 C 54.367188 27.90625 54.25 27.8125 54.132812 27.71875 C 54.050781 27.660156 53.980469 27.585938 53.894531 27.527344 C 53.96875 27.46875 54.039062 27.410156 54.109375 27.351562 C 54.214844 27.257812 54.332031 27.164062 54.4375 27.078125 C 54.472656 27.054688 54.484375 27.019531 54.484375 26.984375 L 54.296875 24.199219 C 54.296875 24.128906 54.238281 24.082031 54.167969 24.09375 C 54.097656 24.09375 54.050781 24.152344 54.0625 24.222656 L 54.238281 26.949219 C 54.144531 27.03125 54.050781 27.101562 53.957031 27.1875 C 53.847656 27.28125 53.730469 27.375 53.625 27.457031 C 53.601562 27.480469 53.578125 27.515625 53.578125 27.550781 C 53.578125 27.585938 53.601562 27.621094 53.625 27.648438 C 53.742188 27.730469 53.859375 27.824219 53.980469 27.917969 C 54.074219 27.988281 54.167969 28.070312 54.273438 28.140625 C 54.121094 28.542969 53.980469 28.96875 53.835938 29.371094 C 53.683594 29.785156 53.53125 30.234375 53.367188 30.65625 Z M 49.945312 31.910156 L 47.882812 33.964844 C 47.835938 34.011719 47.835938 34.082031 47.882812 34.128906 C 47.90625 34.152344 47.945312 34.164062 47.96875 34.164062 C 47.992188 34.164062 48.027344 34.152344 48.050781 34.128906 L 50.109375 32.0625 C 50.15625 32.015625 50.15625 31.945312 50.109375 31.898438 C 50.0625 31.863281 49.992188 31.863281 49.945312 31.910156 Z M 47.742188 25.910156 L 47.859375 24.648438 C 47.871094 24.589844 47.824219 24.527344 47.753906 24.515625 C 47.695312 24.515625 47.636719 24.554688 47.625 24.625 L 47.507812 25.886719 C 47.496094 25.945312 47.542969 26.003906 47.613281 26.015625 C 47.613281 26.015625 47.625 26.015625 47.625 26.015625 C 47.695312 26.015625 47.742188 25.96875 47.742188 25.910156 Z M 43.34375 24.234375 C 43.285156 24.210938 43.214844 24.234375 43.191406 24.292969 L 42.742188 25.226562 C 42.71875 25.285156 42.742188 25.355469 42.800781 25.378906 C 42.8125 25.390625 42.835938 25.390625 42.847656 25.390625 C 42.894531 25.390625 42.933594 25.367188 42.957031 25.320312 L 43.402344 24.386719 C 43.425781 24.339844 43.402344 24.269531 43.34375 24.234375 Z M 55.191406 26.242188 C 55.214844 26.253906 55.238281 26.265625 55.261719 26.265625 C 55.296875 26.265625 55.332031 26.242188 55.355469 26.21875 L 55.992188 25.273438 C 56.027344 25.214844 56.015625 25.144531 55.957031 25.109375 C 55.894531 25.074219 55.824219 25.085938 55.789062 25.144531 L 55.15625 26.085938 C 55.121094 26.125 55.132812 26.195312 55.191406 26.242188 Z M 50.4375 57.804688 L 47.753906 57.804688 C 47.683594 57.804688 47.636719 57.851562 47.636719 57.921875 C 47.636719 57.992188 47.683594 58.042969 47.753906 58.042969 L 50.4375 58.042969 C 50.507812 58.042969 50.554688 57.992188 50.554688 57.921875 C 50.554688 57.851562 50.507812 57.804688 50.4375 57.804688 Z M 54.789062 56.410156 C 54.800781 56.410156 54.8125 56.410156 54.8125 56.410156 C 54.835938 56.410156 54.847656 56.410156 54.871094 56.398438 C 55.144531 56.375 55.425781 56.304688 55.71875 56.199219 C 55.871094 56.140625 56.039062 56.082031 56.191406 56 C 56.226562 55.972656 56.261719 55.9375 56.261719 55.890625 L 56.472656 36.148438 C 56.472656 36.078125 56.425781 36.03125 56.355469 36.03125 C 56.296875 36.03125 56.238281 36.078125 56.238281 36.148438 L 56.039062 55.820312 C 55.90625 55.878906 55.777344 55.9375 55.660156 55.972656 C 55.414062 56.058594 55.179688 56.117188 54.957031 56.152344 L 55.085938 37.316406 C 55.085938 37.246094 55.039062 37.199219 54.96875 37.199219 C 54.90625 37.199219 54.847656 37.246094 54.847656 37.316406 L 54.71875 56.175781 C 54.203125 56.210938 53.753906 56.117188 53.449219 56 C 53.261719 55.925781 53.132812 55.867188 53.0625 55.832031 L 52.707031 37.023438 C 52.707031 36.964844 52.648438 36.902344 52.589844 36.902344 L 51.53125 36.902344 C 51.472656 36.902344 51.414062 36.953125 51.414062 37.023438 L 51.085938 55.84375 C 51.015625 55.878906 50.882812 55.949219 50.695312 56.011719 C 50.414062 56.117188 50.015625 56.199219 49.554688 56.1875 L 49.414062 37.328125 C 49.414062 37.269531 49.355469 37.210938 49.296875 37.210938 C 49.226562 37.210938 49.179688 37.269531 49.179688 37.328125 L 49.308594 56.175781 C 49.050781 56.152344 48.765625 56.09375 48.472656 55.988281 C 48.34375 55.9375 48.214844 55.890625 48.097656 55.832031 L 47.882812 35.925781 C 47.882812 35.863281 47.824219 35.804688 47.765625 35.804688 C 47.695312 35.804688 47.648438 35.863281 47.648438 35.925781 L 47.859375 55.914062 C 47.859375 55.960938 47.882812 56 47.933594 56.023438 C 48.085938 56.105469 48.25 56.164062 48.402344 56.222656 C 48.847656 56.375 49.261719 56.433594 49.636719 56.433594 C 50.097656 56.433594 50.484375 56.339844 50.777344 56.234375 C 51.085938 56.128906 51.261719 56.011719 51.261719 56.011719 C 51.296875 55.988281 51.308594 55.949219 51.320312 55.914062 L 51.648438 37.152344 L 52.496094 37.152344 L 52.824219 55.914062 C 52.824219 55.949219 52.847656 55.988281 52.882812 56.011719 C 52.894531 56.011719 53.074219 56.128906 53.367188 56.234375 C 53.660156 56.339844 54.050781 56.433594 54.507812 56.433594 C 54.589844 56.421875 54.683594 56.421875 54.789062 56.410156 Z M 56.355469 57.804688 L 53.671875 57.804688 C 53.601562 57.804688 53.554688 57.851562 53.554688 57.921875 C 53.554688 57.992188 53.601562 58.042969 53.671875 58.042969 L 56.355469 58.042969 C 56.425781 58.042969 56.472656 57.992188 56.472656 57.921875 C 56.472656 57.851562 56.425781 57.804688 56.355469 57.804688 Z M 39.003906 5.707031 C 39.003906 5.707031 38.992188 5.707031 38.992188 5.695312 C 38.980469 5.695312 38.980469 5.683594 38.96875 5.683594 C 38.957031 5.683594 38.957031 5.683594 38.945312 5.683594 C 38.945312 5.683594 38.933594 5.683594 38.933594 5.683594 L 11.496094 5.683594 C 11.425781 5.683594 11.378906 5.730469 11.378906 5.800781 L 11.378906 41.722656 C 11.378906 41.734375 11.378906 41.734375 11.378906 41.746094 C 11.378906 41.757812 11.378906 41.757812 11.378906 41.769531 C 11.378906 41.78125 11.390625 41.78125 11.390625 41.78125 C 11.390625 41.792969 11.402344 41.792969 11.402344 41.804688 L 14.226562 44.191406 C 14.25 44.214844 14.273438 44.214844 14.296875 44.214844 L 41.730469 44.214844 C 41.742188 44.214844 41.765625 44.214844 41.777344 44.203125 C 41.777344 44.203125 41.789062 44.203125 41.789062 44.191406 C 41.800781 44.179688 41.8125 44.179688 41.824219 44.167969 C 41.824219 44.167969 41.824219 44.15625 41.835938 44.15625 C 41.835938 44.144531 41.847656 44.144531 41.847656 44.132812 C 41.847656 44.117188 41.847656 44.117188 41.847656 44.105469 C 41.847656 44.105469 41.847656 44.09375 41.847656 44.09375 L 41.847656 25.554688 C 41.847656 25.484375 41.800781 25.4375 41.730469 25.4375 C 41.660156 25.4375 41.613281 25.484375 41.613281 25.554688 L 41.613281 43.847656 L 40.96875 43.292969 L 40.96875 32.226562 C 40.96875 32.15625 40.921875 32.109375 40.847656 32.109375 C 40.777344 32.109375 40.730469 32.15625 40.730469 32.226562 L 40.730469 43.089844 L 40.003906 42.464844 L 40.003906 25.121094 C 40.003906 25.046875 39.957031 25 39.882812 25 C 39.8125 25 39.765625 25.046875 39.765625 25.121094 L 39.765625 42.265625 L 39.050781 41.664062 L 39.050781 21.351562 C 39.050781 21.28125 39.003906 21.234375 38.933594 21.234375 C 38.859375 21.234375 38.8125 21.28125 38.8125 21.351562 L 38.8125 41.605469 L 11.613281 41.605469 L 11.613281 5.90625 L 38.8125 5.90625 L 38.8125 19.617188 C 38.8125 19.6875 38.859375 19.734375 38.933594 19.734375 C 39.003906 19.734375 39.050781 19.6875 39.050781 19.617188 L 39.050781 6.050781 L 39.765625 6.652344 L 39.765625 17.90625 C 39.765625 17.976562 39.8125 18.023438 39.882812 18.023438 C 39.957031 18.023438 40.003906 17.976562 40.003906 17.90625 L 40.003906 6.851562 L 40.742188 7.476562 L 40.742188 19.78125 C 40.742188 19.851562 40.789062 19.898438 40.859375 19.898438 C 40.933594 19.898438 40.980469 19.851562 40.980469 19.78125 L 40.980469 7.679688 L 41.625 8.234375 L 41.625 21.058594 C 41.625 21.128906 41.671875 21.175781 41.742188 21.175781 C 41.8125 21.175781 41.859375 21.128906 41.859375 21.058594 L 41.859375 8.1875 C 41.859375 8.152344 41.847656 8.117188 41.8125 8.09375 Z M 38.882812 41.828125 L 39.554688 42.394531 L 30.824219 42.394531 C 30.753906 42.394531 30.707031 42.441406 30.707031 42.511719 C 30.707031 42.582031 30.753906 42.632812 30.824219 42.632812 L 39.835938 42.632812 L 40.542969 43.222656 L 35.789062 43.222656 C 35.71875 43.222656 35.671875 43.269531 35.671875 43.339844 C 35.671875 43.410156 35.71875 43.457031 35.789062 43.457031 L 40.824219 43.457031 L 41.4375 43.976562 L 14.355469 43.976562 L 13.742188 43.457031 L 19.015625 43.457031 C 19.085938 43.457031 19.132812 43.410156 19.132812 43.339844 C 19.132812 43.269531 19.085938 43.222656 19.015625 43.222656 L 13.472656 43.222656 L 12.765625 42.632812 L 23.167969 42.632812 C 23.238281 42.632812 23.285156 42.582031 23.285156 42.511719 C 23.285156 42.441406 23.238281 42.394531 23.167969 42.394531 L 12.484375 42.394531 L 11.8125 41.828125 Z M 29.695312 11.882812 L 24.214844 11.882812 C 24.144531 11.882812 24.097656 11.929688 24.097656 12 C 24.097656 12.070312 24.144531 12.117188 24.214844 12.117188 L 29.695312 12.117188 C 29.765625 12.117188 29.8125 12.070312 29.8125 12 C 29.8125 11.929688 29.753906 11.882812 29.695312 11.882812 Z M 29.695312 12.648438 L 24.214844 12.648438 C 24.144531 12.648438 24.097656 12.695312 24.097656 12.769531 C 24.097656 12.839844 24.144531 12.886719 24.214844 12.886719 L 29.695312 12.886719 C 29.765625 12.886719 29.8125 12.839844 29.8125 12.769531 C 29.8125 12.695312 29.753906 12.648438 29.695312 12.648438 Z M 29.695312 13.429688 L 24.214844 13.429688 C 24.144531 13.429688 24.097656 13.476562 24.097656 13.546875 C 24.097656 13.617188 24.144531 13.664062 24.214844 13.664062 L 29.695312 13.664062 C 29.765625 13.664062 29.8125 13.617188 29.8125 13.546875 C 29.8125 13.476562 29.753906 13.429688 29.695312 13.429688 Z M 29.8125 14.316406 C 29.8125 14.242188 29.765625 14.195312 29.695312 14.195312 L 24.214844 14.195312 C 24.144531 14.195312 24.097656 14.242188 24.097656 14.316406 C 24.097656 14.386719 24.144531 14.433594 24.214844 14.433594 L 29.695312 14.433594 C 29.753906 14.433594 29.8125 14.375 29.8125 14.316406 Z M 24.214844 14.964844 C 24.144531 14.964844 24.097656 15.011719 24.097656 15.082031 C 24.097656 15.152344 24.144531 15.199219 24.214844 15.199219 L 27.449219 15.199219 C 27.519531 15.199219 27.566406 15.152344 27.566406 15.082031 C 27.566406 15.011719 27.519531 14.964844 27.449219 14.964844 Z M 23.167969 26.546875 L 13.742188 26.546875 C 13.671875 26.546875 13.625 26.59375 13.625 26.667969 C 13.625 26.738281 13.671875 26.785156 13.742188 26.785156 L 23.167969 26.785156 C 23.238281 26.785156 23.285156 26.738281 23.285156 26.667969 C 23.285156 26.59375 23.238281 26.546875 23.167969 26.546875 Z M 23.167969 27.316406 L 13.742188 27.316406 C 13.671875 27.316406 13.625 27.363281 13.625 27.433594 C 13.625 27.503906 13.671875 27.550781 13.742188 27.550781 L 23.167969 27.550781 C 23.238281 27.550781 23.285156 27.503906 23.285156 27.433594 C 23.285156 27.363281 23.238281 27.316406 23.167969 27.316406 Z M 23.167969 28.082031 L 13.742188 28.082031 C 13.671875 28.082031 13.625 28.128906 13.625 28.203125 C 13.625 28.273438 13.671875 28.320312 13.742188 28.320312 L 23.167969 28.320312 C 23.238281 28.320312 23.285156 28.273438 23.285156 28.203125 C 23.285156 28.128906 23.238281 28.082031 23.167969 28.082031 Z M 23.167969 28.863281 L 13.742188 28.863281 C 13.671875 28.863281 13.625 28.910156 13.625 28.980469 C 13.625 29.050781 13.671875 29.097656 13.742188 29.097656 L 23.167969 29.097656 C 23.238281 29.097656 23.285156 29.050781 23.285156 28.980469 C 23.285156 28.910156 23.238281 28.863281 23.167969 28.863281 Z M 13.742188 29.867188 L 18.460938 29.867188 C 18.53125 29.867188 18.578125 29.820312 18.578125 29.75 C 18.578125 29.675781 18.53125 29.628906 18.460938 29.628906 L 13.742188 29.628906 C 13.671875 29.628906 13.625 29.675781 13.625 29.75 C 13.625 29.820312 13.671875 29.867188 13.742188 29.867188 Z M 23.167969 31.199219 L 13.742188 31.199219 C 13.671875 31.199219 13.625 31.246094 13.625 31.320312 C 13.625 31.390625 13.671875 31.4375 13.742188 31.4375 L 23.167969 31.4375 C 23.238281 31.4375 23.285156 31.390625 23.285156 31.320312 C 23.285156 31.246094 23.238281 31.199219 23.167969 31.199219 Z M 23.167969 31.980469 L 13.742188 31.980469 C 13.671875 31.980469 13.625 32.027344 13.625 32.097656 C 13.625 32.167969 13.671875 32.214844 13.742188 32.214844 L 23.167969 32.214844 C 23.238281 32.214844 23.285156 32.167969 23.285156 32.097656 C 23.285156 32.027344 23.238281 31.980469 23.167969 31.980469 Z M 22.121094 37.234375 L 14.789062 37.234375 C 14.71875 37.234375 14.671875 37.28125 14.671875 37.351562 C 14.671875 37.421875 14.71875 37.472656 14.789062 37.472656 L 22.121094 37.472656 C 22.191406 37.472656 22.238281 37.421875 22.238281 37.351562 C 22.238281 37.28125 22.179688 37.234375 22.121094 37.234375 Z M 22.121094 38.003906 L 14.789062 38.003906 C 14.71875 38.003906 14.671875 38.050781 14.671875 38.121094 C 14.671875 38.191406 14.71875 38.238281 14.789062 38.238281 L 22.121094 38.238281 C 22.191406 38.238281 22.238281 38.191406 22.238281 38.121094 C 22.238281 38.050781 22.179688 38.003906 22.121094 38.003906 Z M 23.167969 32.746094 L 13.742188 32.746094 C 13.671875 32.746094 13.625 32.792969 13.625 32.867188 C 13.625 32.9375 13.671875 32.984375 13.742188 32.984375 L 23.167969 32.984375 C 23.238281 32.984375 23.285156 32.9375 23.285156 32.867188 C 23.285156 32.792969 23.238281 32.746094 23.167969 32.746094 Z M 23.285156 33.632812 C 23.285156 33.5625 23.238281 33.515625 23.167969 33.515625 L 13.742188 33.515625 C 13.671875 33.515625 13.625 33.5625 13.625 33.632812 C 13.625 33.703125 13.671875 33.75 13.742188 33.75 L 23.167969 33.75 C 23.238281 33.75 23.285156 33.703125 23.285156 33.632812 Z M 18.566406 34.402344 C 18.566406 34.328125 18.519531 34.28125 18.449219 34.28125 L 13.742188 34.28125 C 13.671875 34.28125 13.625 34.328125 13.625 34.402344 C 13.625 34.472656 13.671875 34.519531 13.742188 34.519531 L 18.460938 34.519531 C 18.519531 34.519531 18.566406 34.472656 18.566406 34.402344 Z M 36.707031 11.882812 L 31.226562 11.882812 C 31.15625 11.882812 31.109375 11.929688 31.109375 12 C 31.109375 12.070312 31.15625 12.117188 31.226562 12.117188 L 36.707031 12.117188 C 36.777344 12.117188 36.824219 12.070312 36.824219 12 C 36.824219 11.929688 36.765625 11.882812 36.707031 11.882812 Z M 36.707031 12.648438 L 31.226562 12.648438 C 31.15625 12.648438 31.109375 12.695312 31.109375 12.769531 C 31.109375 12.839844 31.15625 12.886719 31.226562 12.886719 L 36.707031 12.886719 C 36.777344 12.886719 36.824219 12.839844 36.824219 12.769531 C 36.824219 12.695312 36.765625 12.648438 36.707031 12.648438 Z M 36.707031 13.429688 L 31.226562 13.429688 C 31.15625 13.429688 31.109375 13.476562 31.109375 13.546875 C 31.109375 13.617188 31.15625 13.664062 31.226562 13.664062 L 36.707031 13.664062 C 36.777344 13.664062 36.824219 13.617188 36.824219 13.546875 C 36.824219 13.476562 36.765625 13.429688 36.707031 13.429688 Z M 36.824219 14.316406 C 36.824219 14.242188 36.777344 14.195312 36.707031 14.195312 L 31.226562 14.195312 C 31.15625 14.195312 31.109375 14.242188 31.109375 14.316406 C 31.109375 14.386719 31.15625 14.433594 31.226562 14.433594 L 36.707031 14.433594 C 36.765625 14.433594 36.824219 14.375 36.824219 14.316406 Z M 34.578125 15.082031 C 34.578125 15.011719 34.53125 14.964844 34.460938 14.964844 L 31.226562 14.964844 C 31.15625 14.964844 31.109375 15.011719 31.109375 15.082031 C 31.109375 15.152344 31.15625 15.199219 31.226562 15.199219 L 34.460938 15.199219 C 34.519531 15.199219 34.578125 15.152344 34.578125 15.082031 Z M 32.992188 18.234375 L 31.753906 19.476562 C 31.707031 19.523438 31.707031 19.59375 31.753906 19.640625 C 31.777344 19.664062 31.8125 19.675781 31.835938 19.675781 C 31.859375 19.675781 31.894531 19.664062 31.921875 19.640625 L 33.15625 18.402344 C 33.203125 18.351562 33.203125 18.28125 33.15625 18.234375 C 33.109375 18.1875 33.027344 18.1875 32.992188 18.234375 Z M 27.765625 18.234375 C 27.71875 18.28125 27.71875 18.351562 27.765625 18.402344 L 29.003906 19.640625 C 29.027344 19.664062 29.0625 19.675781 29.085938 19.675781 C 29.109375 19.675781 29.144531 19.664062 29.167969 19.640625 C 29.214844 19.59375 29.214844 19.523438 29.167969 19.476562 L 27.933594 18.234375 C 27.882812 18.1875 27.8125 18.1875 27.765625 18.234375 Z M 30.34375 22.886719 L 30.34375 24.636719 C 30.34375 24.707031 30.390625 24.753906 30.460938 24.753906 C 30.53125 24.753906 30.578125 24.707031 30.578125 24.636719 L 30.578125 22.886719 C 30.578125 22.816406 30.53125 22.769531 30.460938 22.769531 C 30.390625 22.769531 30.34375 22.816406 30.34375 22.886719 Z M 56.214844 27.28125 C 56.203125 27.222656 56.144531 27.175781 56.085938 27.175781 C 56.027344 27.1875 55.980469 27.246094 55.980469 27.304688 L 56.707031 33.242188 C 56.71875 33.300781 56.765625 33.351562 56.824219 33.351562 C 56.824219 33.351562 56.835938 33.351562 56.835938 33.351562 C 56.894531 33.339844 56.945312 33.277344 56.945312 33.21875 Z M 47.601562 19.40625 C 47.957031 19.511719 48.308594 19.582031 48.671875 19.617188 C 48.566406 19.804688 48.507812 20.03125 48.507812 20.253906 C 48.507812 20.925781 49.027344 21.484375 49.660156 21.484375 C 49.71875 21.484375 49.777344 21.472656 49.835938 21.472656 C 50.25 22.285156 51.039062 22.792969 51.921875 22.792969 C 52.789062 22.792969 53.578125 22.285156 54.003906 21.472656 C 54.0625 21.484375 54.121094 21.484375 54.179688 21.484375 C 54.8125 21.484375 55.332031 20.925781 55.332031 20.253906 C 55.332031 19.746094 55.039062 19.285156 54.589844 19.109375 C 54.765625 18.730469 55.179688 17.621094 54.273438 16.925781 C 54.226562 16.746094 53.992188 16.0625 53.296875 15.742188 C 52.601562 15.425781 51.671875 15.566406 50.554688 16.167969 C 48.425781 17.3125 48.238281 18.292969 48.355469 18.824219 C 47.945312 19.039062 47.589844 19.191406 47.589844 19.191406 C 47.542969 19.214844 47.519531 19.261719 47.519531 19.308594 C 47.519531 19.34375 47.554688 19.378906 47.601562 19.40625 Z M 48.730469 20.242188 C 48.730469 20.019531 48.800781 19.804688 48.921875 19.640625 C 48.96875 19.640625 49.015625 19.652344 49.0625 19.652344 C 49.039062 19.675781 49.027344 19.710938 49.039062 19.746094 L 49.296875 20.902344 C 49.308594 20.964844 49.355469 21 49.414062 21 C 49.425781 21 49.425781 21 49.4375 21 C 49.496094 20.988281 49.542969 20.914062 49.53125 20.855469 L 49.273438 19.699219 C 49.273438 19.6875 49.261719 19.675781 49.261719 19.664062 C 49.320312 19.664062 49.390625 19.664062 49.449219 19.664062 C 49.496094 19.664062 49.554688 19.664062 49.601562 19.664062 C 49.554688 19.851562 49.53125 20.054688 49.53125 20.253906 C 49.53125 20.597656 49.589844 20.925781 49.71875 21.246094 C 49.695312 21.246094 49.671875 21.246094 49.648438 21.246094 C 49.144531 21.246094 48.730469 20.796875 48.730469 20.242188 Z M 51.90625 22.546875 C 51.097656 22.546875 50.367188 22.0625 50.003906 21.28125 C 49.847656 20.964844 49.777344 20.621094 49.777344 20.253906 C 49.777344 20.054688 49.800781 19.851562 49.847656 19.652344 C 51.671875 19.546875 52.992188 18.742188 53.320312 18.519531 C 53.34375 18.542969 53.367188 18.566406 53.390625 18.589844 C 53.566406 18.765625 53.707031 18.980469 53.8125 19.203125 C 53.8125 19.203125 53.8125 19.214844 53.824219 19.214844 C 53.980469 19.535156 54.050781 19.875 54.050781 20.230469 C 54.050781 20.597656 53.96875 20.9375 53.824219 21.257812 C 53.460938 22.0625 52.71875 22.546875 51.90625 22.546875 Z M 55.085938 20.253906 C 55.085938 20.796875 54.671875 21.246094 54.167969 21.246094 C 54.144531 21.246094 54.121094 21.246094 54.097656 21.246094 C 54.226562 20.9375 54.285156 20.597656 54.285156 20.253906 C 54.285156 19.910156 54.226562 19.582031 54.097656 19.261719 C 54.144531 19.261719 54.191406 19.261719 54.25 19.261719 C 54.261719 19.261719 54.273438 19.261719 54.285156 19.261719 C 54.285156 19.261719 54.285156 19.261719 54.296875 19.261719 C 54.332031 19.261719 54.367188 19.273438 54.402344 19.285156 C 54.800781 19.390625 55.085938 19.792969 55.085938 20.253906 Z M 48.542969 18.980469 C 48.589844 18.957031 48.613281 18.898438 48.601562 18.835938 C 48.496094 18.484375 48.472656 17.539062 50.660156 16.371094 C 51.71875 15.804688 52.566406 15.660156 53.191406 15.957031 C 53.871094 16.273438 54.050781 17.019531 54.050781 17.019531 C 54.0625 17.042969 54.074219 17.066406 54.097656 17.089844 C 54.933594 17.703125 54.496094 18.753906 54.355469 19.039062 C 54.34375 19.039062 54.332031 19.039062 54.320312 19.039062 C 54.308594 19.039062 54.296875 19.039062 54.296875 19.039062 C 54.25 19.039062 54.214844 19.027344 54.167969 19.027344 C 54.132812 19.027344 54.085938 19.027344 54.050781 19.039062 C 54.039062 19.039062 54.027344 19.039062 54.027344 19.039062 C 54.015625 19.039062 54.003906 19.039062 54.003906 19.039062 C 53.992188 19.027344 53.992188 19.015625 53.980469 19.003906 C 53.957031 18.96875 53.945312 18.933594 53.921875 18.898438 C 53.894531 18.847656 53.859375 18.8125 53.835938 18.765625 C 53.824219 18.742188 53.800781 18.71875 53.777344 18.683594 C 53.765625 18.660156 53.742188 18.636719 53.730469 18.613281 C 53.683594 18.554688 53.636719 18.496094 53.578125 18.4375 C 53.578125 18.4375 53.578125 18.4375 53.566406 18.425781 C 53.542969 18.390625 53.507812 18.363281 53.484375 18.339844 C 53.460938 18.316406 53.425781 18.292969 53.402344 18.269531 C 53.390625 18.257812 53.378906 18.257812 53.367188 18.246094 C 53.367188 18.246094 53.355469 18.246094 53.355469 18.246094 C 53.34375 18.246094 53.34375 18.246094 53.332031 18.246094 C 53.332031 18.246094 53.320312 18.246094 53.320312 18.246094 C 53.308594 18.246094 53.308594 18.246094 53.296875 18.257812 C 53.296875 18.257812 53.285156 18.257812 53.285156 18.269531 C 53.285156 18.269531 53.273438 18.269531 53.273438 18.269531 C 53.261719 18.28125 51.824219 19.320312 49.765625 19.417969 C 49.179688 19.441406 48.578125 19.390625 48.003906 19.25 C 48.132812 19.179688 48.332031 19.085938 48.542969 18.980469 Z M 49.660156 18.484375 C 49.671875 18.484375 49.683594 18.484375 49.695312 18.472656 L 52.238281 17.550781 C 52.296875 17.527344 52.332031 17.457031 52.308594 17.398438 C 52.285156 17.335938 52.214844 17.300781 52.15625 17.324219 L 49.613281 18.246094 C 49.554688 18.269531 49.519531 18.339844 49.542969 18.402344 C 49.566406 18.460938 49.613281 18.484375 49.660156 18.484375 Z M 21.824219 43.351562 C 21.824219 43.421875 21.871094 43.46875 21.945312 43.46875 L 30.824219 43.46875 C 30.894531 43.46875 30.945312 43.421875 30.945312 43.351562 C 30.945312 43.28125 30.894531 43.234375 30.824219 43.234375 L 21.945312 43.234375 C 21.882812 43.234375 21.824219 43.28125 21.824219 43.351562 Z M 23.285156 7.9375 C 23.285156 7.867188 23.238281 7.820312 23.167969 7.820312 L 13.742188 7.820312 C 13.671875 7.820312 13.625 7.867188 13.625 7.9375 L 13.625 24.636719 C 13.625 24.707031 13.671875 24.753906 13.742188 24.753906 L 23.167969 24.753906 C 23.238281 24.753906 23.285156 24.707031 23.285156 24.636719 Z M 23.050781 8.054688 L 23.050781 17.609375 L 20.859375 13.109375 C 20.835938 13.074219 20.800781 13.039062 20.753906 13.039062 C 20.707031 13.039062 20.671875 13.0625 20.648438 13.109375 L 17.402344 19.78125 L 15.847656 16.59375 C 15.824219 16.558594 15.789062 16.523438 15.742188 16.523438 C 15.695312 16.523438 15.660156 16.546875 15.636719 16.59375 L 13.859375 20.253906 L 13.859375 8.054688 Z M 13.859375 20.785156 L 15.742188 16.914062 L 17.273438 20.042969 L 15.085938 24.515625 L 13.859375 24.515625 Z M 15.355469 24.515625 L 20.753906 13.429688 L 23.050781 18.152344 L 23.050781 24.527344 L 15.355469 24.527344 Z M 15.355469 24.515625 " fill-opacity="1" fill-rule="nonzero"/></g></svg>